<svg width="24" height="24" viewBox="0 0 24 24" fill="none" xmlns="http://www.w3.org/2000/svg">
<path d="M12 0C9.62663 0 7.30657 0.703826 5.33318 2.0224C3.35979 3.34098 1.82169 5.21503 0.913435 7.40774C0.00518311 9.60046 -0.232435 12.0133 0.230588 14.3411C0.69361 16.6689 1.83648 18.8071 3.51471 20.4853C5.19294 22.1635 7.33112 23.3064 9.6589 23.7694C11.9867 24.2324 14.3995 23.9948 16.5922 23.0865C18.7849 22.1783 20.6591 20.6402 21.9777 18.6668C23.2962 16.6934 24 14.3734 24 12C23.9963 8.81855 22.7308 5.76847 20.4812 3.51884C18.2315 1.26921 15.1815 0.00373629 12 0ZM22.3906 15.0235C21.8767 16.7746 20.9301 18.368 19.638 19.6568C18.3459 20.9456 16.75 21.8882 14.9976 22.3976C16.1318 21.287 17.073 19.5483 17.673 17.3412C18.1313 15.598 18.3599 13.8024 18.3529 12C18.3529 11.8471 18.3529 11.6988 18.3529 11.5483C18.2667 11.676 18.174 11.7992 18.0753 11.9176C17.8762 12.1479 17.6529 12.3562 17.4094 12.5388C17.3777 14.077 17.1645 15.606 16.7741 17.0941C15.9035 20.2941 14.2541 22.4471 12.48 22.7741V19.2941H11.5388V22.7788C9.00942 22.3082 6.91763 18.2047 6.63058 13.1765H5.6894C5.89646 17.2188 7.16469 20.6024 8.98352 22.3906C7.23531 21.8783 5.64397 20.9346 4.35582 19.6465C3.06766 18.3583 2.12408 16.767 1.61179 15.0188C2.49885 15.92 3.77409 16.687 5.32468 17.2564C5.23292 16.887 5.15056 16.5059 5.08939 16.1176C2.95292 15.2141 1.50118 13.9129 1.23765 12.4706H11.4094V16.6565C11.4097 16.7535 11.3899 16.8495 11.3514 16.9385C11.3129 17.0276 11.2564 17.1077 11.1855 17.1739C11.1146 17.2402 11.0309 17.2911 10.9395 17.3235C10.848 17.3559 10.7509 17.3691 10.6541 17.3624C9.83352 17.3114 9.01695 17.2085 8.20939 17.0541C8.31292 17.4118 8.42826 17.76 8.55061 18.08C10.8423 18.4423 13.1766 18.4423 15.4682 18.08C15.5906 17.7529 15.7035 17.4094 15.8047 17.0494C14.9903 17.2059 14.1666 17.3096 13.3388 17.3599C13.2422 17.3664 13.1454 17.353 13.0542 17.3204C12.9631 17.2879 12.8796 17.2368 12.809 17.1706C12.7384 17.1044 12.6821 17.0244 12.6437 16.9355C12.6054 16.8467 12.5857 16.7509 12.5859 16.6541V12.4706H14.8165C15.1149 12.4696 15.4118 12.4276 15.6988 12.3459L15.7929 12.32L15.9482 12.2683C16.0345 12.2369 16.1192 12.204 16.2024 12.1695C16.6322 11.9763 17.0133 11.6892 17.3177 11.3294L17.3365 11.3082C17.3456 11.2977 17.3543 11.2867 17.3624 11.2753C17.4 11.2282 17.4377 11.1812 17.4729 11.1318C17.7326 10.7851 17.9206 10.3901 18.026 9.97001C18.1315 9.54988 18.1522 9.11297 18.087 8.68474V8.63293C18.087 8.61175 18.0871 8.59298 18.0753 8.5718C18.0635 8.55063 18.0753 8.51761 18.0588 8.49173C18.0424 8.46584 18.0377 8.39063 18.0259 8.34122C18.0091 8.26887 17.9887 8.19737 17.9647 8.12707V8.12707C17.8144 7.65156 17.5521 7.2191 17.2 6.86592L17.1671 6.83054L17.1224 6.79055C16.6413 6.32722 16.0293 6.02332 15.3694 5.92004H15.3482C15.2094 5.89651 15.0659 5.88004 14.9247 5.86121C14.314 5.77289 13.699 5.71714 13.0824 5.69416C12.8941 5.69416 12.7082 5.68003 12.5176 5.67532H11.9976C10.8432 5.67487 9.69059 5.76606 8.55061 5.94818C8.42826 6.27289 8.31527 6.6165 8.20939 6.97415C9.01695 6.81978 9.83352 6.71681 10.6541 6.6659C10.7509 6.65911 10.848 6.67231 10.9395 6.70473C11.0309 6.73715 11.1146 6.78808 11.1855 6.85432C11.2564 6.92056 11.3129 7.0007 11.3514 7.08973C11.3899 7.17876 11.4097 7.27478 11.4094 7.37178V11.5294H1.22117C1.4847 10.0871 2.93649 8.78588 5.07296 7.88235C5.14355 7.49412 5.2259 7.11298 5.30825 6.74356C3.75766 7.31298 2.48472 8.07998 1.5953 8.98116C2.1076 7.23295 3.05118 5.64167 4.33933 4.35351C5.62748 3.06536 7.21888 2.12167 8.96709 1.60937C7.14121 3.39761 5.87297 6.78588 5.67297 10.8235H6.61415C6.9012 5.79529 8.99294 1.67999 11.5223 1.22116V4.70588H12.4635V1.22358H12.5106C12.5388 1.22358 12.5694 1.22347 12.5977 1.23759C13.9882 1.56465 15.2377 3.00237 16.1271 5.07766C16.1343 5.09053 16.1406 5.10388 16.1459 5.11765C16.6098 5.26474 17.0446 5.49169 17.4306 5.78826C17.1423 4.89523 16.7564 4.03674 16.28 3.22829V3.22829C16.1906 3.0777 16.0988 2.93179 16.0024 2.79297C15.9975 2.78197 15.9911 2.77171 15.9835 2.76241C15.8941 2.63064 15.8024 2.50356 15.7082 2.3812L15.6683 2.32939C15.5812 2.21645 15.4894 2.09417 15.3976 1.9977L15.3388 1.93176C15.2518 1.83293 15.1624 1.73877 15.073 1.64936L15.0259 1.59995C16.7743 2.11266 18.3657 3.05669 19.6538 4.34524C20.942 5.6338 21.8855 7.22561 22.3976 8.97415L22.3765 8.95289C22.2777 8.85407 22.1741 8.75525 22.0659 8.65878L22.0282 8.62592C21.9137 8.52553 21.7937 8.42664 21.6683 8.32939L21.6471 8.31296C21.5169 8.21257 21.3804 8.11368 21.2377 8.01643C20.3025 7.39706 19.2856 6.91091 18.2165 6.5718C18.5073 6.94713 18.7296 7.37086 18.8729 7.82353V7.85179L18.9083 7.86822C21.0518 8.77175 22.513 10.0729 22.7765 11.52H19.2941V12.4612H22.7765C22.513 13.9082 21.0564 15.2118 18.9129 16.1153C18.8376 16.5083 18.7506 16.887 18.6541 17.2611C20.2165 16.7058 21.4988 15.9318 22.3906 15.0235ZM12.5859 11.5294V6.59995C13.4863 6.62498 14.384 6.71074 15.2729 6.8565C15.5471 6.92263 15.8053 7.04285 16.0324 7.21013C16.2595 7.37741 16.4509 7.58829 16.5953 7.83054C17.3482 9.0423 16.8988 10.8894 15.4941 11.3835C15.2393 11.4799 14.969 11.5294 14.6965 11.5294H12.5859Z" fill="#58557A"/>
</svg>
