<svg width="144" height="32" viewBox="0 0 144 32" fill="none" xmlns="http://www.w3.org/2000/svg">
<g clip-path="url(#clip0_2_4273)">
<path d="M143.598 0C142.817 0.287807 142.003 0.478126 141.176 0.56672C139.671 0.734659 138.156 0.807441 136.642 0.78468H121.451V1.00264L123.001 1.51614C123.618 1.67144 124.159 2.04257 124.527 2.56242C124.817 3.02745 125.021 3.99627 125.137 5.46887C125.253 6.94147 125.312 9.52498 125.312 13.2194V18.7998C125.312 22.491 125.253 25.0745 125.137 26.5503C125.021 28.0262 124.817 28.995 124.527 29.4568C124.173 30.0057 123.63 30.4057 123.001 30.5806L121.475 31.1038V31.3218H136.08V31.065L133.857 30.4983C132.781 30.2077 132.048 29.8008 131.657 29.2776C131.267 28.7544 130.982 27.6242 130.805 25.8867C130.653 24.3722 130.567 21.8806 130.548 18.4122L137.979 19.6281V16.2373L130.543 17.274V10.9766C130.543 5.28001 130.63 2.11192 130.805 1.4725L133.987 1.8649C135.925 2.09742 137.357 2.46072 138.284 2.95482C139.314 3.57692 140.122 4.50729 140.595 5.61422C141.51 7.71776 142.26 9.88976 142.838 12.1102H143.055L143.753 0.0338234L143.598 0Z" fill="#58557A"/>
<path d="M53.0477 27.7275C50.4931 24.4606 48.1333 21.046 45.9802 17.5016C46.412 17.3492 46.8357 17.1745 47.2494 16.9784C49.2549 16.0322 50.6934 14.8923 51.5653 13.5586C52.4147 12.2953 52.87 10.8083 52.8733 9.28607C52.8733 6.43775 51.8206 4.30799 49.715 2.89675C47.6094 1.48551 44.703 0.78145 40.9956 0.784679H28.3525V1.00264L29.8784 1.52584C30.4957 1.68114 31.0371 2.05226 31.4045 2.57212C31.6951 3.03715 31.8984 4.00597 32.0147 5.47857C32.131 6.95117 32.189 9.53468 32.189 13.2291V18.8095C32.189 22.5007 32.131 25.0842 32.0147 26.56C31.8984 28.0359 31.6951 29.0047 31.4045 29.4665C31.0371 29.9863 30.4957 30.3576 29.8784 30.5129L28.3525 31.0359V31.2539H43.2628V31.065L40.8407 30.5418C39.7363 30.3093 38.974 29.9606 38.5542 29.4956C38.1344 29.0305 37.8356 28.0488 37.658 26.5503C37.4411 23.9728 37.3537 21.3861 37.3964 18.7998V10.9524C37.3964 7.46466 37.4335 5.10242 37.5078 3.86557C37.5104 3.10935 37.6048 2.35618 37.7888 1.6227H38.5736C41.1571 1.6227 43.1852 2.26857 44.6578 3.56033C46.1304 4.85208 46.8635 6.98184 46.857 9.94964C46.857 11.8679 46.4872 13.3939 45.7477 14.5274C45.1041 15.5694 44.1922 16.4192 43.1076 16.9881C42.3528 17.3529 41.5726 17.6622 40.7728 17.9134L40.9327 18.2088C41.5858 19.5093 42.3051 20.7753 43.0882 22.0018C44.1507 23.7586 45.3926 25.7285 46.8135 27.9115C47.5073 29.0262 48.4024 30.002 49.4534 30.7889C50.3786 31.39 51.4654 31.6943 52.5682 31.6609C53.351 31.6679 54.1326 31.6015 54.903 31.4623C55.6521 31.3133 56.3877 31.1026 57.1022 30.8325V30.6146C56.2848 30.3087 55.5034 29.9139 54.7722 29.4374C54.1133 28.959 53.5316 28.3824 53.0477 27.7275V27.7275Z" fill="#58557A"/>
<path d="M72.952 0.130859C64.8479 0.130859 58.2793 7.26626 58.2793 16.0631C58.2793 24.86 64.8479 32.0001 72.952 32.0001C81.0562 32.0001 87.6392 24.8648 87.6392 16.0486C87.6392 7.23234 81.0562 0.130859 72.952 0.130859ZM72.952 30.8859C68.4034 30.8859 64.7171 24.2496 64.7171 16.0631C64.7171 7.87661 68.3986 1.24502 72.952 1.24502C77.5055 1.24502 81.187 7.88146 81.187 16.0631C81.187 24.2448 77.4958 30.8859 72.952 30.8859V30.8859Z" fill="#58557A"/>
<path d="M104.908 0.130859C96.8039 0.130859 90.2354 7.26626 90.2354 16.0631C90.2354 24.86 96.8039 32.0001 104.908 32.0001C113.012 32.0001 119.576 24.8648 119.576 16.0631C119.576 7.26141 113.007 0.130859 104.908 0.130859ZM104.908 30.8859C100.36 30.8859 96.6732 24.2496 96.6732 16.0631C96.6732 7.87661 100.355 1.24502 104.908 1.24502C109.462 1.24502 113.143 7.88146 113.143 16.0631C113.143 24.2448 109.437 30.8859 104.908 30.8859V30.8859Z" fill="#58557A"/>
<path d="M24.0993 3.03228C21.8581 1.53062 18.7772 0.781449 14.8568 0.784678H0V1.00264L2.38325 1.51614C3.4877 1.74866 4.24994 2.09739 4.66976 2.56242C5.08958 3.02745 5.38811 4.0076 5.56573 5.50281C5.66745 6.37959 5.73524 7.63905 5.77884 9.25697C5.77884 10.4002 5.80793 11.7226 5.80793 13.2436V18.824C5.80793 22.5152 5.74987 25.0987 5.63361 26.5746C5.51735 28.0504 5.31401 29.0192 5.02337 29.481C4.65606 30.0009 4.11458 30.372 3.49729 30.5273L1.97146 31.0505V31.2685H16.9155V31.065L14.4935 30.5806C13.389 30.3481 12.6268 29.9994 12.2069 29.5344C11.7871 29.0693 11.4886 28.0876 11.311 26.5891C11.094 24.0116 11.0067 21.4248 11.0494 18.8386V10.9912C11.0494 10.4826 11.0494 10.0224 11.0494 9.53797C11.0494 6.94154 11.0978 5.1056 11.1608 4.05443C11.1631 3.24882 11.2656 2.44665 11.4659 1.66633H12.2992C15.0474 1.66633 17.2013 2.3542 18.7611 3.72992C20.3209 5.10564 21.1008 7.36621 21.1008 10.5116C21.1008 12.5461 20.7069 14.1608 19.9189 15.3557C19.2352 16.4631 18.2665 17.3665 17.1142 17.9715C15.7941 18.5973 14.4124 19.0843 12.9917 19.4247L13.0838 19.8413C16.5424 19.5636 19.3375 18.9177 21.4689 17.9037C23.6003 16.8897 25.1295 15.677 26.0563 14.2658C26.9584 12.9236 27.4423 11.344 27.4466 9.72684C27.4531 6.76226 26.3373 4.53072 24.0993 3.03228Z" fill="#58557A"/>
</g>
<defs>
<clipPath id="clip0_2_4273">
<rect width="143.734" height="32" fill="white"/>
</clipPath>
</defs>
</svg>
