<svg width="428" height="87" viewBox="0 0 428 87" fill="none" xmlns="http://www.w3.org/2000/svg">
<g clip-path="url(#clip0_2_23560)">
<path d="M229.367 73.8763H229.581C229.867 73.8763 230.105 74.2087 230.366 74.8969C230.643 75.6568 230.772 76.4621 230.747 77.2701C230.769 77.5116 230.711 77.7537 230.58 77.9583C230.533 78.0347 230.466 78.0971 230.387 78.1389C230.307 78.1806 230.218 78.2002 230.128 78.1955C229.748 78.1955 229.415 77.8871 229.082 77.2463V77.0089C228.94 76.6653 228.7 76.3714 228.391 76.1643C228.081 75.9573 227.718 75.8465 227.345 75.8461C227.103 75.7903 226.85 75.7903 226.608 75.8461C226.528 75.9188 226.464 76.0067 226.419 76.1045C226.374 76.2023 226.349 76.3081 226.346 76.4156C226.346 76.558 226.346 76.9141 226.346 77.5073C226.346 78.1006 226.346 78.7414 226.346 79.4296C226.346 80.901 226.346 82.0876 226.346 83.0131C226.347 83.5934 226.395 84.1727 226.489 84.7455C226.489 84.8641 226.703 84.9829 226.988 85.1252C227.179 85.1951 227.35 85.3088 227.488 85.4574C227.572 85.5835 227.614 85.7331 227.607 85.8845C227.607 86.2168 227.417 86.4304 227.036 86.5728C226.303 86.741 225.55 86.805 224.8 86.7627C224.057 86.8037 223.312 86.7397 222.587 86.5728C222.207 86.4304 222.017 86.2168 222.017 85.8845C222.02 85.7299 222.069 85.5799 222.158 85.4532C222.247 85.3265 222.372 85.2288 222.516 85.1726C222.724 85.0959 222.918 84.9834 223.087 84.8403C223.243 84.3332 223.315 83.8043 223.301 83.2741C223.301 82.396 223.301 81.0908 223.301 79.4296C223.301 78.7414 223.301 78.0769 223.301 77.5073C223.301 76.9378 223.301 76.558 223.301 76.4156C223.285 76.2007 223.192 75.9987 223.039 75.8461C222.789 75.7891 222.529 75.7891 222.278 75.8461C221.902 75.8559 221.536 75.9728 221.224 76.183C220.913 76.3932 220.667 76.6881 220.518 77.0327L220.399 77.2937C220.098 77.9107 219.765 78.2193 219.4 78.2193C219.307 78.2233 219.214 78.2037 219.131 78.1622C219.048 78.1207 218.977 78.0587 218.924 77.982C218.814 77.7699 218.765 77.5318 218.781 77.2937C218.757 76.4857 218.885 75.6804 219.162 74.9205C219.4 74.2323 219.662 73.9001 219.947 73.9001H220.161C220.542 74.0018 220.933 74.0576 221.327 74.0662H228.463C228.77 74.0304 229.072 73.9668 229.367 73.8763Z" fill="#D7F0D3"/>
<path d="M234.957 79.0262C234.957 79.0262 235.171 79.0261 235.29 78.765L235.457 78.5515C235.732 78.2361 236.073 77.985 236.456 77.8159C237.085 77.5743 237.769 77.5151 238.43 77.6452C239.091 77.7754 239.702 78.0897 240.191 78.5515C240.766 79.4817 241.024 80.5719 240.928 81.6604V83.1317C240.928 83.7962 240.928 84.2471 240.928 84.4844C240.886 84.6398 240.886 84.8037 240.928 84.9591C241.07 85.0795 241.231 85.1758 241.404 85.2439C241.525 85.2989 241.628 85.3852 241.703 85.4937C241.778 85.6023 241.823 85.7292 241.832 85.8609C241.832 86.1694 241.642 86.3592 241.285 86.5016C240.645 86.6437 239.989 86.6996 239.334 86.6677C238.672 86.7006 238.008 86.6447 237.36 86.5016C237.003 86.3592 236.813 86.1694 236.813 85.8609C236.813 85.5524 237.003 85.3862 237.336 85.2201L237.645 85.054C237.749 84.9167 237.807 84.7509 237.812 84.5793C237.846 84.1053 237.846 83.6295 237.812 83.1555C237.883 82.211 237.778 81.2615 237.503 80.3552C237.393 80.153 237.226 79.987 237.024 79.8775C236.821 79.7679 236.591 79.7195 236.361 79.7381C236.094 79.7185 235.828 79.7779 235.595 79.9088C235.363 80.0396 235.174 80.2362 235.053 80.4738C234.726 81.2207 234.579 82.0334 234.624 82.847C234.624 83.5114 234.624 83.986 234.624 84.2945C234.629 84.4977 234.67 84.6984 234.743 84.8878C234.889 85.0021 235.049 85.0978 235.219 85.1726C235.339 85.2277 235.443 85.314 235.518 85.4226C235.593 85.5312 235.638 85.6579 235.647 85.7896C235.647 86.0982 235.457 86.2881 235.1 86.4304C234.46 86.5726 233.804 86.6285 233.149 86.5966C232.487 86.6295 231.823 86.5736 231.175 86.4304C230.818 86.2881 230.652 86.0982 230.652 85.7896C230.652 85.4811 230.818 85.315 231.175 85.1488L231.461 84.9829C231.61 84.6893 231.684 84.3628 231.675 84.0335C231.675 83.5114 231.675 82.1825 231.675 80.0466C231.675 78.3854 231.675 77.2938 231.675 76.7954C231.685 76.4748 231.593 76.1591 231.413 75.8936L230.913 75.7275C230.58 75.7275 230.438 75.4427 230.438 75.1817C230.438 75.099 230.458 75.0174 230.495 74.9434C230.532 74.8694 230.586 74.8048 230.652 74.7544C230.898 74.5525 231.181 74.3996 231.484 74.3036C231.939 74.1102 232.409 73.9515 232.888 73.829C233.267 73.722 233.659 73.6662 234.053 73.6628C234.291 73.6628 234.482 73.6629 234.553 73.829C234.671 74.0466 234.721 74.2947 234.696 74.5409C234.696 74.8257 234.696 75.3715 234.696 76.1546C234.696 76.9378 234.696 77.6023 234.696 78.1006V78.6939C234.704 78.768 234.733 78.8384 234.779 78.897C234.826 78.9557 234.887 79.0004 234.957 79.0262V79.0262Z" fill="#D7F0D3"/>
<path d="M246.233 82.3723C246.109 82.3354 245.977 82.3354 245.853 82.3723C245.825 82.4408 245.825 82.5175 245.853 82.586C245.85 82.8786 245.908 83.1687 246.023 83.4381C246.137 83.7075 246.306 83.9506 246.519 84.1522C246.732 84.3614 246.985 84.5259 247.262 84.636C247.54 84.746 247.837 84.7995 248.136 84.793C248.656 84.7831 249.167 84.6616 249.635 84.437C249.925 84.2686 250.237 84.1409 250.563 84.0573C250.711 84.053 250.855 84.1037 250.967 84.1997C251.024 84.2402 251.071 84.2935 251.104 84.3553C251.137 84.4171 251.156 84.4856 251.157 84.5556C251.156 84.7755 251.09 84.9902 250.967 85.1726C250.808 85.4126 250.606 85.6217 250.372 85.7897C249.957 86.1298 249.481 86.3876 248.969 86.5491C248.433 86.73 247.87 86.8183 247.304 86.8101C246.61 86.9595 245.891 86.9521 245.2 86.7884C244.509 86.6246 243.864 86.3087 243.312 85.8638C242.759 85.419 242.314 84.8563 242.007 84.2172C241.701 83.5782 241.542 82.8788 241.542 82.1706C241.542 81.4623 241.701 80.7631 242.007 80.124C242.314 79.485 242.759 78.9223 243.312 78.4774C243.864 78.0325 244.509 77.7166 245.2 77.5529C245.891 77.3891 246.61 77.3817 247.304 77.5311C248.362 77.4873 249.399 77.8431 250.206 78.5278C250.575 78.8334 250.869 79.2186 251.067 79.6544C251.265 80.0902 251.361 80.5652 251.348 81.0434C251.375 81.3919 251.318 81.7419 251.181 82.0638C251.098 82.1542 250.994 82.2231 250.877 82.2644C250.761 82.3058 250.637 82.3184 250.515 82.3012L246.233 82.3723ZM248.303 81.1146C248.388 81.1419 248.479 81.1419 248.564 81.1146C248.564 81.1146 248.564 81.1145 248.564 80.8772C248.584 80.4121 248.432 79.9561 248.136 79.5958C248.008 79.4437 247.848 79.3222 247.667 79.24C247.486 79.1579 247.288 79.1172 247.089 79.1211C246.893 79.1189 246.698 79.1654 246.524 79.2565C246.35 79.3477 246.201 79.4806 246.09 79.6433C245.799 80.015 245.647 80.4768 245.662 80.9485C245.649 80.9784 245.642 81.0107 245.642 81.0434C245.642 81.076 245.649 81.1083 245.662 81.1382H245.924L248.303 81.1146Z" fill="#D7F0D3"/>
<path d="M261.791 86.6915C260.958 86.4433 260.187 86.0237 259.528 85.4596C258.868 84.8954 258.334 84.1994 257.961 83.4165C257.493 82.4136 257.257 81.3188 257.271 80.2128C257.262 79.4969 257.366 78.784 257.58 78.1006C257.786 77.4401 258.109 76.8213 258.532 76.2733C259.151 75.4729 259.972 74.8505 260.911 74.4696C262.569 73.7378 264.436 73.6282 266.168 74.1611C266.833 74.398 267.459 74.7341 268.023 75.158C268.823 75.7895 269.46 76.6034 269.879 77.5311C270.329 78.5138 270.556 79.5834 270.545 80.6637C270.553 81.3562 270.448 82.0453 270.236 82.7046C270.031 83.3421 269.726 83.9429 269.332 84.4845C268.711 85.3002 267.892 85.9452 266.953 86.3592C265.99 86.7971 264.942 87.016 263.884 87C263.175 87.0083 262.468 86.9042 261.791 86.6915V86.6915ZM266.691 79.2872C266.502 78.5704 266.196 77.8891 265.787 77.2701C265.463 76.773 265.042 76.3453 264.55 76.0123C264.159 75.7399 263.695 75.591 263.218 75.5851C262.849 75.5798 262.484 75.6659 262.156 75.8357C261.828 76.0055 261.547 76.2536 261.339 76.558C260.838 77.3423 260.597 78.2639 260.649 79.1924C260.643 79.9938 260.748 80.7922 260.958 81.5655C261.178 82.2944 261.498 82.9893 261.91 83.6302C262.219 84.1045 262.624 84.5087 263.099 84.8167C263.5 85.0853 263.973 85.226 264.455 85.2201C264.82 85.2328 265.182 85.1522 265.507 84.9861C265.831 84.8199 266.108 84.5737 266.311 84.2708C266.819 83.5067 267.069 82.6003 267.024 81.6841C267.026 80.8658 266.914 80.0511 266.691 79.2635V79.2872Z" fill="#D7F0D3"/>
<path d="M276.563 78.6226C276.6 78.7222 276.6 78.8315 276.563 78.9311C276.605 79.1985 276.605 79.4707 276.563 79.7381C276.563 79.7381 276.326 79.8804 276.064 79.8804H275.469C275.327 79.8804 275.231 79.8804 275.184 79.8804C275.143 80.028 275.143 80.1838 275.184 80.3314V82.04C275.184 83.0367 275.184 83.7487 275.184 84.1759C275.175 84.4364 275.224 84.6956 275.326 84.9353C275.508 85.0858 275.719 85.1988 275.945 85.2676C276.302 85.41 276.468 85.5998 276.468 85.8371C276.468 86.0744 276.254 86.3355 275.826 86.4541C275.131 86.6021 274.42 86.6657 273.709 86.6439C273.046 86.6783 272.382 86.6224 271.735 86.4778C271.378 86.3354 271.211 86.1456 271.211 85.8371C271.22 85.7054 271.265 85.5786 271.341 85.4701C271.416 85.3615 271.519 85.2751 271.639 85.2201C271.807 85.1554 271.961 85.0587 272.091 84.9353C272.194 84.6956 272.243 84.4364 272.234 84.1759C272.234 83.7487 272.234 83.0605 272.234 82.0875V80.1652C272.234 79.9516 272.234 79.8329 271.853 79.8092H271.282C271.225 79.8065 271.169 79.79 271.119 79.7611C271.07 79.7322 271.028 79.6918 270.997 79.6432C270.974 79.4064 270.974 79.1679 270.997 78.9311C270.997 78.6701 271.187 78.5277 271.544 78.504H271.972C272.051 78.5222 272.132 78.5222 272.21 78.504C272.228 78.4179 272.228 78.3291 272.21 78.243C272.21 78.243 272.21 78.0294 272.21 77.6972C272.189 77.4049 272.189 77.1114 272.21 76.8191C272.19 76.4104 272.253 76.0017 272.396 75.6182C272.54 75.2347 272.759 74.8843 273.043 74.5884C273.701 74.0239 274.556 73.7423 275.422 73.8052C276.108 73.7696 276.788 73.9435 277.372 74.3036C277.601 74.4322 277.791 74.6181 277.924 74.843C278.058 75.0678 278.13 75.3237 278.134 75.585C278.141 75.728 278.12 75.871 278.071 76.0055C278.021 76.1401 277.946 76.2634 277.848 76.3682C277.748 76.4663 277.629 76.5422 277.498 76.5913C277.367 76.6403 277.227 76.6614 277.087 76.653C276.84 76.6581 276.598 76.5831 276.397 76.4393C276.163 76.2217 275.97 75.9646 275.826 75.6799C275.722 75.4699 275.586 75.2776 275.422 75.1104C275.309 75.0144 275.165 74.9636 275.017 74.968C274.925 74.9649 274.834 74.9802 274.748 75.0128C274.662 75.0454 274.584 75.0947 274.518 75.1579C274.396 75.2956 274.328 75.4725 274.327 75.6562C274.425 76.0772 274.594 76.4784 274.827 76.8427C275.128 77.3658 275.307 77.9499 275.35 78.5515H276.373C276.421 78.5515 276.54 78.5751 276.563 78.6226Z" fill="#D7F0D3"/>
<path d="M285.96 78.2193H286.412C286.486 78.2125 286.562 78.2267 286.629 78.2603C286.696 78.2938 286.753 78.3454 286.792 78.4092C286.855 78.6343 286.855 78.8722 286.792 79.0973V79.3583C286.792 80.1178 286.792 80.8772 286.792 81.7315V82.9418C286.756 83.5583 286.756 84.1765 286.792 84.793C286.787 84.8883 286.802 84.9836 286.834 85.0732C286.867 85.1629 286.917 85.2451 286.982 85.315L287.268 85.4811C287.625 85.6472 287.791 85.8609 287.791 86.1219C287.791 86.383 287.625 86.6203 287.268 86.7627C286.62 86.9059 285.956 86.9616 285.294 86.9287C284.631 86.9602 283.967 86.9045 283.319 86.7627C282.962 86.6203 282.772 86.4304 282.772 86.1219C282.772 85.8134 282.962 85.6472 283.319 85.4811L283.605 85.315C283.718 85.1815 283.785 85.0149 283.795 84.8403C283.795 84.603 283.795 84.0573 283.795 83.203C283.795 82.3487 283.795 81.8027 283.795 81.3043C283.815 81.0199 283.815 80.7345 283.795 80.45C283.771 80.3846 283.733 80.3252 283.684 80.2759C283.635 80.2267 283.575 80.189 283.509 80.1653C283.259 80.1114 282.999 80.1114 282.748 80.1653H281.273C281.13 80.1653 281.035 80.1653 280.988 80.1653C280.947 80.3129 280.947 80.4686 280.988 80.6162V82.3248C280.988 83.3215 280.988 84.0335 280.988 84.4607C280.979 84.7212 281.028 84.9805 281.131 85.2201C281.277 85.3344 281.436 85.43 281.606 85.5049C281.727 85.5599 281.83 85.6463 281.905 85.7549C281.981 85.8635 282.025 85.9902 282.035 86.1219C282.035 86.4304 281.844 86.6203 281.487 86.7627C280.848 86.9049 280.191 86.9606 279.537 86.9287C278.874 86.9616 278.21 86.9059 277.562 86.7627C277.206 86.6203 277.015 86.4304 277.015 86.1219C277.025 85.9902 277.069 85.8635 277.144 85.7549C277.22 85.6463 277.323 85.5599 277.443 85.5049C277.613 85.43 277.773 85.3344 277.919 85.2201C277.997 84.9736 278.045 84.7186 278.062 84.4607C278.062 84.0335 278.062 83.3453 278.062 82.3723V80.45C278.062 80.2365 277.919 80.1177 277.658 80.094H277.087C277.029 80.0925 276.973 80.0736 276.926 80.0397C276.879 80.0058 276.844 79.9586 276.825 79.9043C276.789 79.6683 276.789 79.4283 276.825 79.1923C276.795 79.0916 276.795 78.9845 276.825 78.8838C276.91 78.8581 277.001 78.8581 277.087 78.8838H277.872C277.887 78.5993 277.887 78.314 277.872 78.0294C277.904 77.5541 277.992 77.0843 278.133 76.6293C278.401 75.8615 278.943 75.2192 279.656 74.8257C280.522 74.3783 281.488 74.1578 282.463 74.1849C283.375 74.1456 284.281 74.3592 285.08 74.8019C285.376 74.95 285.626 75.1766 285.803 75.4571C285.979 75.7375 286.074 76.0609 286.078 76.3919C286.089 76.7242 285.969 77.0476 285.745 77.2937C285.629 77.4059 285.491 77.4932 285.34 77.5504C285.188 77.6075 285.027 77.6332 284.865 77.626C284.691 77.633 284.517 77.6051 284.354 77.544C284.19 77.4829 284.041 77.3897 283.914 77.2701C283.795 77.1579 283.701 77.0213 283.64 76.8697C283.578 76.7182 283.55 76.5552 283.557 76.3919C283.545 76.2815 283.545 76.1702 283.557 76.0598C283.587 75.9274 283.635 75.7996 283.7 75.68L283.057 75.4902H282.415C282.16 75.4653 281.902 75.5043 281.665 75.6038C281.428 75.7032 281.22 75.8599 281.059 76.0598C280.744 76.6579 280.604 77.3321 280.655 78.0058C280.655 78.1956 280.655 78.4804 280.655 78.8601H283.034C284.031 78.7648 285.014 78.5496 285.96 78.2193V78.2193Z" fill="#D7F0D3"/>
<path d="M290.004 78.9312C290.48 78.4824 291.04 78.1318 291.653 77.8997C292.265 77.6675 292.917 77.5584 293.572 77.5785C294.47 77.5508 295.353 77.8085 296.094 78.3142C296.396 78.5095 296.646 78.7764 296.82 79.091C296.994 79.4056 297.088 79.7584 297.093 80.1178C297.103 80.3013 297.074 80.4848 297.009 80.6565C296.943 80.8282 296.842 80.9841 296.712 81.1141C296.581 81.244 296.425 81.3451 296.253 81.4106C296.081 81.4761 295.897 81.5046 295.713 81.4943C295.557 81.5015 295.401 81.478 295.254 81.4251C295.107 81.3721 294.972 81.2908 294.857 81.1858C294.516 80.7765 294.25 80.3105 294.072 79.8093C294.001 79.5811 293.849 79.3869 293.644 79.2635C293.443 79.1406 293.213 79.0749 292.977 79.0736C292.774 79.0676 292.573 79.1149 292.393 79.2107C292.214 79.3064 292.063 79.4474 291.955 79.6196C291.681 80.0773 291.548 80.6056 291.574 81.1383C291.539 82.0749 291.806 82.9981 292.335 83.7726C292.535 84.0889 292.812 84.3488 293.141 84.5275C293.47 84.7062 293.84 84.7976 294.214 84.793C294.672 84.7724 295.119 84.6508 295.523 84.437C295.816 84.2848 296.127 84.173 296.45 84.1047C296.613 84.0974 296.773 84.1479 296.903 84.2471C296.958 84.3029 297.002 84.3698 297.031 84.4434C297.059 84.5169 297.072 84.5956 297.069 84.6744C297.056 84.8701 296.99 85.0586 296.879 85.2202C296.745 85.4297 296.576 85.6144 296.379 85.766C295.93 86.1308 295.424 86.4194 294.881 86.6203C294.351 86.7951 293.797 86.8834 293.239 86.8814C292.624 86.9109 292.008 86.8145 291.432 86.5982C290.855 86.3819 290.328 86.0502 289.885 85.6236C289.457 85.2 289.122 84.6922 288.9 84.1325C288.679 83.5729 288.577 82.9735 288.6 82.3724C288.59 81.7341 288.709 81.1005 288.951 80.5092C289.192 79.9179 289.55 79.3812 290.004 78.9312Z" fill="#D7F0D3"/>
<path d="M301.732 83.2504C301.732 83.9386 301.732 84.4133 301.732 84.6506C301.732 84.8273 301.8 84.9973 301.922 85.1252L302.207 85.2912C302.564 85.4574 302.731 85.671 302.731 85.932C302.731 86.1931 302.564 86.4304 302.207 86.5728C301.559 86.7146 300.896 86.7705 300.233 86.739C299.578 86.7733 298.922 86.7173 298.282 86.5728C297.902 86.4304 297.735 86.2405 297.735 85.932C297.735 85.6235 297.902 85.4574 298.258 85.2912L298.544 85.1252C298.665 84.9782 298.733 84.7937 298.734 84.6031C298.734 84.3183 298.734 83.7725 298.734 82.9656C298.774 82.175 298.774 81.383 298.734 80.5924C298.731 80.3579 298.647 80.1316 298.496 79.9516L297.997 79.7856C297.862 79.763 297.74 79.6931 297.653 79.5886C297.566 79.4842 297.519 79.3519 297.521 79.216C297.526 79.1432 297.545 79.0722 297.578 79.0069C297.61 78.9417 297.656 78.8837 297.711 78.8363C297.856 78.6901 298.025 78.5697 298.211 78.4803C298.719 78.2525 299.244 78.0622 299.781 77.9107C300.217 77.7991 300.663 77.7354 301.113 77.7209C301.292 77.7016 301.471 77.7528 301.613 77.8634C301.67 78.0812 301.67 78.31 301.613 78.5278V78.9074C301.613 79.6906 301.613 80.4264 301.613 81.1146L301.732 83.2504ZM298.758 74.2561C299.159 73.9466 299.655 73.7871 300.162 73.8052C300.616 73.7929 301.06 73.9351 301.422 74.2086C301.579 74.3175 301.707 74.4632 301.794 74.6329C301.881 74.8026 301.925 74.9911 301.922 75.1817C301.917 75.3827 301.865 75.5798 301.77 75.757C301.675 75.9343 301.54 76.0868 301.375 76.2021C300.968 76.4754 300.485 76.6163 299.995 76.6055C299.532 76.6281 299.074 76.5034 298.687 76.2495C298.533 76.1429 298.408 76.001 298.321 75.8358C298.234 75.6706 298.188 75.4869 298.187 75.3003C298.191 75.0932 298.244 74.8899 298.344 74.7081C298.443 74.5262 298.585 74.3712 298.758 74.2561Z" fill="#D7F0D3"/>
<path d="M308.892 80.5449C308.92 80.1478 308.854 79.7496 308.701 79.382C308.616 79.2713 308.503 79.1847 308.373 79.1306C308.244 79.0765 308.103 79.0568 307.964 79.0735C307.494 79.1291 307.061 79.3576 306.751 79.7143C306.751 79.7143 306.751 79.7143 306.751 79.7143C306.344 80.186 305.776 80.4903 305.157 80.5686C305.029 80.5827 304.901 80.5688 304.779 80.5279C304.658 80.4871 304.546 80.4202 304.453 80.3321C304.361 80.2439 304.288 80.1366 304.241 80.0176C304.194 79.8986 304.174 79.7709 304.181 79.6432C304.181 79.0499 304.586 78.5277 305.418 78.0768C306.355 77.5842 307.405 77.3469 308.463 77.3887C309.404 77.3139 310.342 77.5562 311.128 78.0768C311.424 78.3582 311.653 78.7029 311.798 79.0851C311.942 79.4673 311.997 79.8771 311.96 80.2838C311.96 80.5924 311.96 80.9958 311.96 81.4467C311.96 81.8976 311.96 82.2299 311.96 82.4197V83.6774C311.944 83.8511 311.944 84.0259 311.96 84.1996C311.96 84.3183 311.96 84.4131 312.127 84.4369C312.298 84.5343 312.482 84.6063 312.674 84.6505C312.983 84.6505 313.15 84.9116 313.15 85.1252C313.138 85.3436 313.054 85.5521 312.912 85.7185C312.718 85.9417 312.484 86.1267 312.222 86.2643C311.982 86.4046 311.727 86.5161 311.461 86.5965C311.232 86.6781 310.99 86.7182 310.747 86.7152C310.569 86.701 310.395 86.6518 310.236 86.5703C310.076 86.4889 309.935 86.3768 309.819 86.2405L309.296 85.7421L309.058 85.8845C308.383 86.4228 307.544 86.7158 306.679 86.7152C305.875 86.7623 305.082 86.4989 304.467 85.9795C304.192 85.7323 303.975 85.4277 303.831 85.0872C303.687 84.7468 303.62 84.3789 303.634 84.0097C303.619 83.5919 303.707 83.1767 303.889 82.8003C304.071 82.4238 304.343 82.0977 304.681 81.8502C305.572 81.3007 306.609 81.0358 307.655 81.0908H308.321H309.106L308.892 80.5449ZM308.892 82.6096H308.559H308.178C307.744 82.5829 307.315 82.7088 306.965 82.9655C306.822 83.0929 306.709 83.2507 306.635 83.4273C306.56 83.6039 306.527 83.7948 306.536 83.986C306.525 84.3215 306.635 84.65 306.846 84.9115C306.96 85.0188 307.094 85.1015 307.242 85.1546C307.389 85.2077 307.546 85.23 307.702 85.2201C308.029 85.2436 308.352 85.1417 308.606 84.9353C308.71 84.8154 308.789 84.6759 308.838 84.5251C308.887 84.3743 308.905 84.2152 308.892 84.0572V82.6096Z" fill="#D7F0D3"/>
<path d="M317.17 84.0098C317.15 84.3581 317.207 84.7065 317.337 85.0303C317.467 85.1537 317.621 85.2504 317.789 85.315C317.909 85.3701 318.012 85.4565 318.088 85.565C318.163 85.6736 318.207 85.8004 318.217 85.9321C318.217 86.2406 318.05 86.4305 317.67 86.5729C316.371 86.7942 315.044 86.7942 313.745 86.5729C313.388 86.4305 313.197 86.2406 313.197 85.9321C313.207 85.8004 313.251 85.6736 313.327 85.565C313.402 85.4565 313.505 85.3701 313.626 85.315C313.799 85.2469 313.96 85.1507 314.101 85.0303C314.18 84.7928 314.22 84.5445 314.221 84.2946C314.221 83.9149 314.221 82.9656 314.221 81.4943V79.572C314.221 78.2668 314.221 77.4124 314.221 76.9852C314.23 76.7069 314.173 76.4304 314.054 76.1784C313.885 76.0549 313.69 75.9735 313.483 75.941C313.15 75.8145 312.983 75.6246 312.983 75.3715C312.982 75.3 312.997 75.2292 313.025 75.1636C313.054 75.0981 313.096 75.0395 313.15 74.9919C313.309 74.8468 313.495 74.734 313.697 74.6596C314.203 74.4181 314.728 74.2196 315.267 74.0663C315.692 73.9388 316.132 73.867 316.576 73.8528C316.813 73.8528 316.98 73.8527 317.051 74.0188C317.16 74.2394 317.201 74.487 317.17 74.7308V75.2291C317.17 77.1276 317.17 79.0737 317.17 81.0671C317.123 82.4436 317.123 83.4403 317.17 84.0098Z" fill="#D7F0D3"/>
<path d="M328.327 81.9451C328.327 82.2299 328.327 82.4435 328.327 82.5622C328.327 83.2504 328.327 83.7487 328.327 84.1284C328.345 84.3551 328.393 84.5786 328.47 84.7929C328.647 84.9236 328.839 85.035 329.04 85.1252C329.191 85.1747 329.323 85.2699 329.416 85.3975C329.51 85.5252 329.562 85.6788 329.564 85.8371C329.564 86.1694 329.373 86.3829 328.969 86.5253C328.245 86.6951 327.499 86.7591 326.757 86.7152C325.959 86.7714 325.157 86.7073 324.378 86.5253C324.216 86.4971 324.07 86.4123 323.965 86.2862C323.861 86.16 323.804 86.0008 323.807 85.8371C323.809 85.6788 323.86 85.5252 323.954 85.3975C324.048 85.2699 324.18 85.1747 324.33 85.1252C324.529 85.0445 324.714 84.9323 324.877 84.7929C325.035 84.319 325.108 83.8208 325.091 83.3216C325.091 82.4672 325.091 81.3043 325.091 79.8567C325.091 78.4091 325.091 77.7684 325.091 77.0802C325.102 76.6665 325.029 76.2549 324.877 75.8698C324.714 75.7305 324.529 75.6182 324.33 75.5376C324.18 75.4881 324.048 75.3929 323.954 75.2652C323.86 75.1376 323.809 74.9839 323.807 74.8256C323.804 74.7001 323.836 74.5762 323.899 74.4674C323.962 74.3587 324.053 74.2692 324.164 74.2086C324.488 74.0483 324.849 73.9748 325.211 73.9951H327.113H328.874H330.42C331.567 73.9149 332.707 74.2244 333.655 74.8731C334.019 75.2039 334.303 75.6129 334.484 76.0694C334.665 76.5259 334.74 77.0177 334.702 77.5073C334.733 78.0536 334.64 78.5999 334.43 79.1054C334.22 79.6109 333.898 80.0624 333.489 80.4263C332.502 81.1765 331.278 81.5472 330.039 81.4705H329.278H328.303L328.327 81.9451ZM328.327 79.572H328.993C329.757 79.6384 330.522 79.464 331.181 79.0735C331.409 78.8798 331.586 78.6341 331.698 78.3573C331.81 78.0804 331.853 77.7806 331.823 77.4836C331.845 77.2091 331.803 76.9334 331.7 76.6781C331.597 76.4228 331.435 76.1949 331.229 76.0122C330.737 75.6454 330.129 75.4683 329.516 75.5138C329.273 75.4633 329.022 75.4633 328.779 75.5138C328.702 75.5475 328.633 75.5964 328.575 75.6576C328.518 75.7188 328.474 75.7911 328.446 75.8698C328.418 76.0984 328.418 76.3294 328.446 76.558C328.446 76.8902 328.446 77.626 328.446 78.7177L328.327 79.572Z" fill="#D7F0D3"/>
<path d="M339.698 81.9452V82.5622C339.668 83.0839 339.668 83.6068 339.698 84.1284C339.69 84.3735 339.739 84.6169 339.84 84.8404C340.003 84.9797 340.188 85.092 340.388 85.1726C340.535 85.2278 340.663 85.3245 340.755 85.4509C340.848 85.5773 340.902 85.728 340.911 85.8846C340.911 86.2168 340.697 86.4305 340.316 86.5729C339.592 86.7427 338.846 86.8067 338.104 86.7628C337.306 86.819 336.504 86.7549 335.725 86.5729C335.563 86.5447 335.417 86.4599 335.312 86.3337C335.208 86.2076 335.152 86.0483 335.154 85.8846C335.157 85.7299 335.207 85.5799 335.296 85.4532C335.385 85.3265 335.509 85.2288 335.654 85.1726C335.859 85.0889 336.051 84.9771 336.225 84.8404C336.382 84.3666 336.447 83.8671 336.415 83.369C336.415 82.5147 336.415 81.3519 336.415 79.9043C336.415 78.4567 336.415 77.8158 336.415 77.1276C336.441 76.7151 336.376 76.3021 336.225 75.9174C336.053 75.7775 335.86 75.6654 335.654 75.5851C335.509 75.5289 335.385 75.4313 335.296 75.3046C335.207 75.1779 335.157 75.0278 335.154 74.8732C335.151 74.7477 335.183 74.6238 335.246 74.515C335.309 74.4062 335.401 74.3168 335.511 74.2562C335.835 74.0959 336.196 74.0222 336.558 74.0425H338.461H340.197H341.767C342.903 73.9627 344.033 74.2635 344.979 74.897C345.35 75.1975 345.644 75.583 345.835 76.021C346.025 76.4589 346.107 76.9363 346.073 77.4125C346.094 78.1527 345.868 78.8788 345.431 79.4771C345.025 80.044 344.423 80.4412 343.742 80.5925V80.5925C344.006 80.6663 344.262 80.7698 344.503 80.901C344.716 81.0301 344.916 81.1812 345.098 81.3519C345.098 81.4943 345.312 81.6604 345.431 81.8266C345.532 82.0014 345.62 82.1839 345.692 82.3723C345.827 82.7609 345.938 83.1572 346.025 83.5589C346.105 83.9238 346.217 84.2811 346.358 84.6269C346.543 84.8553 346.805 85.0074 347.096 85.054H347.31C347.471 85.0934 347.619 85.1753 347.738 85.2913C347.82 85.4004 347.862 85.5346 347.857 85.6711C347.849 85.8431 347.791 86.0089 347.69 86.1482C347.588 86.2874 347.448 86.3939 347.286 86.4542C346.783 86.6666 346.238 86.7639 345.692 86.739C345.299 86.7461 344.907 86.6982 344.527 86.5966C344.229 86.5043 343.953 86.3507 343.718 86.1457C343.186 85.5018 342.826 84.7345 342.671 83.9149C342.671 83.6776 342.529 83.4878 342.505 83.3454C342.337 82.6557 342.011 82.0139 341.553 81.4705C341.115 81.1479 340.573 80.996 340.031 81.0434H339.555C339.721 81.3756 339.698 81.6129 339.698 81.9452ZM339.698 79.572H340.506C341.199 79.6364 341.894 79.4694 342.481 79.0974C342.7 78.9236 342.871 78.6978 342.979 78.4406C343.087 78.1835 343.128 77.9033 343.099 77.626C343.115 77.3578 343.072 77.0895 342.974 76.8395C342.875 76.5895 342.723 76.3639 342.528 76.1784C342.066 75.8059 341.48 75.6196 340.887 75.6563C340.628 75.6449 340.369 75.6854 340.126 75.775C340.05 75.806 339.982 75.8544 339.929 75.9163C339.875 75.9781 339.837 76.0516 339.817 76.1309C339.791 76.3517 339.791 76.5747 339.817 76.7955C339.817 77.1277 339.817 77.8395 339.817 78.9075L339.698 79.572Z" fill="#D7F0D3"/>
<path d="M353.209 86.6915C352.377 86.4433 351.606 86.0237 350.946 85.4596C350.286 84.8954 349.752 84.1994 349.379 83.4165C348.912 82.4136 348.676 81.3188 348.69 80.2128C348.68 79.4969 348.785 78.784 348.999 78.1006C349.205 77.4401 349.527 76.8213 349.95 76.2733C350.575 75.4784 351.394 74.8572 352.329 74.4696C353.987 73.7378 355.854 73.6282 357.586 74.1611C358.252 74.398 358.877 74.7341 359.442 75.158C360.242 75.7895 360.878 76.6034 361.297 77.5311C361.747 78.5138 361.975 79.5834 361.963 80.6637C361.971 81.3562 361.867 82.0453 361.654 82.7046C361.46 83.3461 361.154 83.9486 360.75 84.4845C360.129 85.3002 359.31 85.9452 358.371 86.3592C357.409 86.7971 356.36 87.016 355.302 87C354.593 87.0083 353.886 86.9042 353.209 86.6915V86.6915ZM358.11 79.2872C357.92 78.5704 357.615 77.8891 357.206 77.2701C356.881 76.773 356.461 76.3453 355.969 76.0123C355.578 75.7399 355.114 75.591 354.637 75.5851C354.267 75.5798 353.902 75.6659 353.574 75.8357C353.246 76.0055 352.966 76.2536 352.757 76.558C352.266 77.3466 352.026 78.265 352.067 79.1924C352.058 79.9956 352.17 80.7957 352.4 81.5655C352.602 82.2971 352.915 82.9934 353.328 83.6302C353.637 84.1045 354.042 84.5087 354.518 84.8167C354.918 85.0853 355.391 85.226 355.874 85.2201C356.241 85.2302 356.605 85.1486 356.934 84.9829C357.262 84.8171 357.543 84.5724 357.753 84.2708C358.243 83.4993 358.484 82.5965 358.443 81.6841C358.444 80.8658 358.332 80.0511 358.11 79.2635V79.2872Z" fill="#D7F0D3"/>
<path d="M367.34 86.6914C366.687 86.4961 366.069 86.1998 365.508 85.8134C364.654 85.201 363.967 84.3852 363.51 83.4402C363.025 82.4423 362.781 81.3453 362.796 80.2365C362.795 79.5193 362.907 78.8064 363.129 78.1244C363.337 77.4689 363.65 76.8516 364.057 76.297C364.685 75.5051 365.503 74.8846 366.436 74.4934C368.086 73.7631 369.945 73.6535 371.669 74.1848C372.339 74.4113 372.966 74.7483 373.525 75.1817C374.338 75.8057 374.984 76.621 375.404 77.5548C375.843 78.541 376.07 79.6081 376.07 80.6873C376.067 81.3789 375.963 82.0666 375.761 82.7283C375.547 83.3617 375.242 83.9611 374.857 84.5082C374.239 85.3269 373.42 85.9725 372.478 86.3829C371.523 86.8173 370.483 87.0362 369.433 87.0237C368.722 87.0243 368.015 86.9122 367.34 86.6914V86.6914ZM372.24 79.2872C372.053 78.5654 371.739 77.8825 371.313 77.2701C370.996 76.7744 370.584 76.3467 370.099 76.0122C369.702 75.7352 369.228 75.5862 368.743 75.5851C368.377 75.5816 368.016 75.6686 367.693 75.8384C367.369 76.0082 367.092 76.2554 366.888 76.558C366.379 77.3395 366.129 78.2613 366.174 79.1923C366.177 79.9948 366.289 80.7932 366.507 81.5655C366.717 82.2982 367.038 82.9945 367.459 83.6301C367.759 84.1033 368.156 84.5078 368.624 84.8167C369.032 85.0899 369.513 85.2308 370.004 85.2201C370.368 85.2305 370.729 85.1489 371.054 84.983C371.378 84.817 371.655 84.572 371.86 84.2708C372.368 83.5066 372.618 82.6002 372.573 81.6841C372.583 80.8669 372.478 80.0522 372.264 79.2634L372.24 79.2872Z" fill="#D7F0D3"/>
<path d="M386.133 73.9238H386.656C386.918 73.9238 387.132 74.1375 387.322 74.5884C387.508 75.1384 387.597 75.7166 387.584 76.297C387.6 76.5304 387.541 76.7629 387.417 76.9615C387.36 77.0375 387.283 77.097 387.196 77.1345C387.108 77.1719 387.012 77.1859 386.918 77.175C386.817 77.2094 386.709 77.2094 386.608 77.175C386.473 77.0654 386.352 76.9377 386.252 76.7954V76.6293C386.099 76.3973 385.895 76.2027 385.657 76.0597C385.379 75.9274 385.082 75.8392 384.777 75.7986C384.293 75.768 383.809 75.768 383.326 75.7986C382.882 75.7605 382.437 75.7605 381.994 75.7986C381.756 75.7986 381.637 75.9411 381.589 76.0835C381.568 76.4075 381.568 76.7324 381.589 77.0564C381.589 77.531 381.589 78.1243 381.589 78.8363C381.589 79.5482 381.898 79.4058 382.564 79.4058C383.021 79.4391 383.48 79.3909 383.92 79.2634C384.029 79.2024 384.122 79.1171 384.192 79.0142C384.263 78.9112 384.308 78.7935 384.325 78.6701C384.333 78.5279 384.333 78.3853 384.325 78.243C384.325 77.7446 384.586 77.4836 384.943 77.4836C385.103 77.4867 385.257 77.5452 385.379 77.6491C385.5 77.753 385.582 77.8958 385.609 78.0531C385.785 78.7185 385.857 79.4068 385.823 80.094C385.862 80.8283 385.79 81.5644 385.609 82.2774C385.576 82.4406 385.486 82.587 385.356 82.6911C385.226 82.7951 385.063 82.8503 384.896 82.8469C384.594 82.8469 384.404 82.6096 384.325 82.135C384.325 81.9214 384.325 81.779 384.325 81.6603C384.308 81.537 384.263 81.4193 384.192 81.3163C384.122 81.2134 384.029 81.1281 383.92 81.0671C383.488 80.9409 383.037 80.8927 382.588 80.9247H382.374C381.993 80.9247 381.756 80.9247 381.684 80.9247C381.577 81.1286 381.535 81.3606 381.565 81.5891C381.565 82.918 381.565 83.7724 381.565 84.1284C381.57 84.3722 381.619 84.6133 381.708 84.8403C381.832 84.9727 381.987 85.0709 382.16 85.1252H382.35C382.504 85.1908 382.641 85.2878 382.755 85.41C382.795 85.5414 382.795 85.6819 382.755 85.8134C382.759 85.9643 382.713 86.1124 382.622 86.2331C382.531 86.3539 382.402 86.4401 382.255 86.4778C381.474 86.6462 380.674 86.7101 379.876 86.6677C379.079 86.7082 378.279 86.6443 377.498 86.4778C377.347 86.4448 377.212 86.3604 377.116 86.2392C377.021 86.118 376.971 85.9675 376.974 85.8134C376.978 85.6588 377.027 85.5086 377.116 85.3819C377.205 85.2552 377.329 85.1577 377.474 85.1015C377.675 85.0112 377.867 84.8998 378.045 84.7692C378.175 84.2898 378.239 83.7947 378.235 83.2978C378.235 82.4435 378.235 81.2806 378.235 79.833C378.235 78.3853 378.235 77.7446 378.235 77.0564C378.234 76.6456 378.17 76.2373 378.045 75.8461C377.873 75.7062 377.68 75.594 377.474 75.5138C377.329 75.4576 377.205 75.3601 377.116 75.2334C377.027 75.1067 376.978 74.9565 376.974 74.8019C376.968 74.6667 377.004 74.533 377.076 74.4185C377.148 74.304 377.254 74.2141 377.379 74.1611C378.16 73.9941 378.961 73.9383 379.757 73.9951H385.348C385.611 73.9946 385.874 73.9707 386.133 73.9238V73.9238Z" fill="#D7F0D3"/>
<path d="M397.55 81.9451C397.55 82.2299 397.55 82.4435 397.55 82.5622C397.55 83.2504 397.55 83.7487 397.55 84.1284C397.544 84.3581 397.593 84.5862 397.693 84.7929C397.871 84.9236 398.063 85.035 398.264 85.1252C398.411 85.1803 398.539 85.2769 398.632 85.4033C398.725 85.5298 398.779 85.6806 398.788 85.8371C398.788 86.1694 398.573 86.3829 398.193 86.5253C397.468 86.6951 396.723 86.7591 395.981 86.7152C395.183 86.7714 394.381 86.7073 393.602 86.5253C393.44 86.4971 393.294 86.4123 393.189 86.2862C393.085 86.16 393.028 86.0008 393.031 85.8371C393.034 85.6825 393.084 85.5323 393.173 85.4056C393.262 85.2789 393.386 85.1814 393.53 85.1252C393.739 85.0485 393.932 84.9361 394.101 84.7929C394.259 84.3192 394.323 83.8197 394.291 83.3216C394.291 82.4672 394.291 81.3043 394.291 79.8567C394.291 78.4091 394.291 77.7684 394.291 77.0802C394.318 76.6677 394.253 76.2545 394.101 75.8698C393.932 75.7267 393.739 75.6142 393.53 75.5376C393.386 75.4814 393.262 75.3838 393.173 75.2571C393.084 75.1304 393.034 74.9803 393.031 74.8256C393.028 74.7001 393.06 74.5762 393.123 74.4674C393.186 74.3587 393.277 74.2692 393.388 74.2086C393.712 74.0483 394.073 73.9748 394.434 73.9951H396.337H398.098H399.644C400.791 73.9149 401.931 74.2244 402.879 74.8731C403.243 75.2039 403.526 75.6129 403.708 76.0694C403.889 76.5259 403.964 77.0177 403.926 77.5073C403.957 78.0536 403.864 78.5999 403.654 79.1054C403.444 79.6109 403.122 80.0624 402.713 80.4263C401.726 81.1765 400.502 81.5472 399.263 81.4705H398.383H397.408L397.55 81.9451ZM397.55 79.572H398.217C398.98 79.6384 399.746 79.464 400.405 79.0735C400.633 78.8798 400.81 78.6341 400.922 78.3573C401.034 78.0804 401.077 77.7806 401.048 77.4836C401.069 77.2091 401.027 76.9334 400.924 76.6781C400.82 76.4228 400.659 76.1949 400.453 76.0122C399.954 75.6418 399.336 75.4647 398.716 75.5138C398.481 75.4652 398.238 75.4652 398.003 75.5138C397.926 75.5475 397.857 75.5964 397.799 75.6576C397.742 75.7188 397.698 75.7911 397.67 75.8698C397.642 76.0984 397.642 76.3294 397.67 76.558C397.67 76.8902 397.67 77.626 397.67 78.7177L397.55 79.572Z" fill="#D7F0D3"/>
<path d="M413.751 73.9238H414.274C414.536 73.9238 414.773 74.1375 414.94 74.5884C415.147 75.1337 415.244 75.7143 415.225 76.297C415.23 76.5293 415.173 76.7588 415.059 76.9615C414.998 77.0327 414.921 77.0889 414.834 77.1259C414.747 77.163 414.653 77.1797 414.559 77.175C414.451 77.2096 414.335 77.2096 414.226 77.175C414.09 77.0654 413.971 76.9377 413.87 76.7954C413.878 76.7404 413.878 76.6843 413.87 76.6293C413.731 76.3943 413.534 76.1984 413.298 76.0597C413.012 75.9276 412.707 75.8394 412.394 75.7986C411.911 75.768 411.427 75.768 410.943 75.7986C410.5 75.7615 410.055 75.7615 409.611 75.7986C409.528 75.806 409.448 75.8368 409.381 75.8871C409.313 75.9374 409.261 76.0054 409.231 76.0835C409.197 76.407 409.197 76.7329 409.231 77.0564C409.231 77.531 409.231 78.1243 409.231 78.8363C409.231 79.5482 409.564 79.4058 410.23 79.4058C410.679 79.4378 411.13 79.3896 411.562 79.2634C411.674 79.2037 411.771 79.1192 411.845 79.0163C411.919 78.9135 411.969 78.7951 411.99 78.6701C411.99 78.6701 411.99 78.4328 411.99 78.243C411.99 78.0531 412.276 77.4836 412.633 77.4836C412.989 77.4836 413.156 77.6734 413.298 78.0531C413.451 78.7222 413.515 79.4083 413.489 80.094C413.519 80.8269 413.455 81.5607 413.298 82.2774C413.261 82.4385 413.17 82.5824 413.041 82.6857C412.911 82.7891 412.751 82.8459 412.585 82.8469C412.252 82.8469 412.062 82.6096 412.014 82.135C412.014 81.9214 412.014 81.779 412.014 81.6603C411.993 81.5354 411.943 81.417 411.869 81.3142C411.795 81.2113 411.698 81.1268 411.586 81.0671C411.154 80.9409 410.703 80.8927 410.254 80.9247H410.063C409.683 80.9247 409.445 80.9247 409.35 80.9247C409.282 81.141 409.282 81.3727 409.35 81.5891C409.35 82.918 409.35 83.7724 409.35 84.1284C409.343 84.3734 409.391 84.6169 409.492 84.8403C409.6 84.9792 409.751 85.0793 409.921 85.1252H410.135C410.282 85.1897 410.412 85.2872 410.515 85.41C410.556 85.5414 410.556 85.6819 410.515 85.8134C410.519 85.9675 410.469 86.118 410.373 86.2392C410.278 86.3604 410.143 86.4448 409.992 86.4778C409.211 86.6474 408.411 86.7113 407.613 86.6677C406.815 86.7098 406.015 86.6459 405.234 86.4778C405.081 86.4455 404.943 86.3622 404.844 86.2414C404.744 86.1206 404.689 85.9696 404.687 85.8134C404.691 85.6588 404.74 85.5086 404.829 85.3819C404.918 85.2552 405.042 85.1577 405.187 85.1015C405.395 85.0248 405.588 84.9123 405.758 84.7692C405.916 84.2952 405.988 83.7971 405.972 83.2978C405.972 82.4435 405.972 81.2806 405.972 79.833C405.972 78.3853 405.972 77.7446 405.972 77.0564C405.982 76.6427 405.91 76.2311 405.758 75.8461C405.586 75.7062 405.393 75.594 405.187 75.5138C405.042 75.4576 404.918 75.3601 404.829 75.2334C404.74 75.1067 404.691 74.9565 404.687 74.8019C404.679 74.6632 404.717 74.5258 404.794 74.4102C404.871 74.2947 404.984 74.2072 405.115 74.1611C405.896 73.9928 406.697 73.937 407.494 73.9951H413.108C413.324 73.9877 413.539 73.9638 413.751 73.9238V73.9238Z" fill="#D7F0D3"/>
<path d="M420.031 81.9452V82.5623C420.002 83.084 420.002 83.6068 420.031 84.1285C420.024 84.3582 420.073 84.5863 420.173 84.7931C420.343 84.9362 420.536 85.0487 420.744 85.1253C420.889 85.1815 421.013 85.2791 421.102 85.4058C421.191 85.5325 421.241 85.6826 421.244 85.8373C421.244 86.1695 421.054 86.383 420.673 86.5254C419.193 86.7787 417.681 86.7787 416.201 86.5254C416.039 86.4972 415.893 86.4124 415.788 86.2863C415.684 86.1601 415.628 86.001 415.63 85.8373C415.634 85.6826 415.683 85.5325 415.772 85.4058C415.861 85.2791 415.985 85.1815 416.129 85.1253C416.331 85.0351 416.522 84.9237 416.7 84.7931C416.831 84.3136 416.895 83.8186 416.891 83.3217C416.891 82.4674 416.891 81.3045 416.891 79.8568C416.891 78.4092 416.891 77.7685 416.891 77.0803C416.89 76.6695 416.826 76.2612 416.7 75.87C416.522 75.7393 416.331 75.6279 416.129 75.5377C415.985 75.4815 415.861 75.384 415.772 75.2573C415.683 75.1306 415.634 74.9804 415.63 74.8258C415.627 74.7002 415.659 74.5763 415.722 74.4676C415.785 74.3588 415.876 74.2693 415.987 74.2087C416.31 74.0452 416.672 73.9715 417.033 73.9952H418.913H420.673H422.243C423.382 73.9186 424.514 74.228 425.455 74.8733C425.826 75.1994 426.115 75.6071 426.301 76.0643C426.487 76.5215 426.564 77.0156 426.525 77.5074C426.556 78.0537 426.464 78.6001 426.253 79.1055C426.043 79.611 425.721 80.0625 425.312 80.4264C424.324 81.1747 423.1 81.5452 421.863 81.4706H420.959H419.983L420.031 81.9452ZM420.031 79.5721H420.72C421.477 79.64 422.235 79.4654 422.885 79.0737C423.113 78.8799 423.29 78.6343 423.402 78.3574C423.514 78.0805 423.557 77.7807 423.528 77.4837C423.549 77.2115 423.508 76.938 423.409 76.6834C423.311 76.4288 423.156 76.1995 422.957 76.0123C422.456 75.6458 421.84 75.4691 421.22 75.5139C420.977 75.4677 420.726 75.4677 420.483 75.5139C420.332 75.5881 420.213 75.7148 420.15 75.87C420.126 76.0987 420.126 76.3293 420.15 76.5581C420.15 76.8904 420.15 77.6261 420.15 78.7178L420.031 79.5721Z" fill="#D7F0D3"/>
<path d="M66.7502 59.4476C66.7502 60.207 66.2268 60.5866 65.1563 60.5154C63.3246 60.373 59.8991 60.2071 54.737 60.2071C49.5749 60.2071 46.197 60.373 44.3653 60.5154C43.3186 60.5154 42.7717 60.207 42.7717 59.4476C42.7717 58.6882 43.3188 58.4033 44.2228 58.166C45.9831 57.7151 46.1971 56.1252 46.1971 53.23V18.1546L30.5918 59.6138C30.5078 59.8847 30.3364 60.1201 30.1039 60.2832C29.8715 60.4464 29.5914 60.5281 29.3074 60.5154H27.8564C27.1665 60.5154 26.9524 60.207 26.7146 59.6849L9.13494 17.9885V49.8837C9.13494 56.1963 11.1094 57.549 13.631 58.166C14.5349 58.4033 15.1532 58.6882 15.1532 59.4476C15.1532 60.207 14.6062 60.5866 13.5595 60.5154C11.8706 60.5154 9.82469 60.3019 7.54101 60.3019C5.25733 60.3019 3.04501 60.4442 1.59392 60.5154C0.523448 60.5154 0 60.207 0 59.4476C0 58.6882 0.523309 58.4033 1.45105 58.166C3.82989 57.3354 4.87673 54.8199 4.87673 49.8837V8.87561C4.29765 8.33766 3.58188 7.96828 2.80715 7.80766C1.9032 7.59408 1.21323 7.21436 1.21323 6.45494C1.21323 5.69553 1.76047 5.38706 2.80715 5.45826C4.63886 5.62438 8.06441 5.76678 13.2503 5.76678C15.6332 5.80669 18.0163 5.70365 20.3868 5.45826C20.779 5.38756 21.1835 5.45554 21.5309 5.65047C21.8783 5.8454 22.1466 6.15497 22.2897 6.52606L34.7547 36.9026L46.2685 6.21769C46.4157 5.9767 46.6347 5.78762 46.8949 5.67698C47.1551 5.56633 47.4434 5.53965 47.7196 5.60064C49.0755 5.60064 51.2877 5.83797 54.7132 5.90916C58.1894 6.02211 61.6692 5.91907 65.1325 5.60064C66.203 5.60064 66.7264 5.83792 66.7264 6.59733C66.7264 7.35674 66.2744 7.66527 65.4418 7.80766C63.4673 8.25856 63.2296 9.84861 63.2296 12.8863V53.23C63.2296 56.1252 63.4674 57.7151 65.2039 58.166C66.2268 58.4033 66.7502 58.6882 66.7502 59.4476Z" fill="#D7F0D3"/>
<path d="M114.256 38.8722C114.354 41.9055 113.84 44.9275 112.745 47.7587C111.649 50.5899 109.994 53.1724 107.878 55.3528C105.762 57.5332 103.228 59.267 100.427 60.451C97.6264 61.635 94.6153 62.2452 91.5733 62.2452C88.5312 62.2452 85.5204 61.635 82.7194 60.451C79.9184 59.267 77.3844 57.5332 75.2684 55.3528C73.1525 53.1724 71.4977 50.5899 70.4022 47.7587C69.3066 44.9275 68.7928 41.9055 68.8913 38.8722C68.8913 26.4132 77.5025 16.2561 91.5852 16.2561C94.5946 16.1357 97.5965 16.6384 100.402 17.7324C103.207 18.8264 105.754 20.4879 107.884 22.6125C110.014 24.7371 111.679 27.2786 112.776 30.077C113.872 32.8754 114.376 35.87 114.256 38.8722V38.8722ZM85.2577 40.2487C87.3035 50.6432 90.9668 59.3764 95.9148 58.4034C100.863 57.4304 99.9588 47.748 97.9606 37.5197C95.9624 27.2914 92.2514 18.3682 87.3035 19.3649C82.3555 20.3617 83.2119 29.9967 85.2577 40.2487V40.2487Z" fill="#D7F0D3"/>
<path d="M163.735 38.8724C163.834 41.9056 163.32 44.9276 162.224 47.7588C161.129 50.59 159.474 53.1726 157.358 55.353C155.242 57.5333 152.708 59.2671 149.907 60.4511C147.106 61.6351 144.095 62.2453 141.053 62.2453C138.011 62.2453 135 61.6351 132.199 60.4511C129.398 59.2671 126.864 57.5333 124.748 55.353C122.632 53.1726 120.977 50.59 119.882 47.7588C118.786 44.9276 118.272 41.9056 118.371 38.8724C118.371 26.4133 126.982 16.2562 141.041 16.2562C144.053 16.1325 147.057 16.6326 149.865 17.7251C152.673 18.8176 155.223 20.4787 157.356 22.6037C159.488 24.7286 161.155 27.2713 162.253 30.0714C163.352 32.8714 163.856 35.8681 163.735 38.8724V38.8724ZM134.737 40.2488C136.783 50.6433 140.446 59.3766 145.394 58.4036C150.342 57.4306 149.415 47.7481 147.44 37.5198C145.466 27.2915 141.731 18.3683 136.783 19.3651C131.835 20.3618 132.668 29.9968 134.737 40.2488V40.2488Z" fill="#D7F0D3"/>
<path d="M216.879 59.4476C216.879 60.207 216.26 60.5866 215.261 60.5154C213.596 60.373 210.503 60.2071 205.46 60.2071C200.417 60.2071 197.301 60.373 195.635 60.5154C194.636 60.5154 194.042 60.207 194.042 59.4476C194.042 58.6882 194.565 58.4034 195.469 58.166C197.229 57.7151 197.467 56.1252 197.467 53.23V34.2447C197.467 28.9288 196.397 23.9214 191.663 23.9214C186.929 23.9214 185.288 28.8576 185.288 33.9362V53.3011C185.288 56.1963 185.502 57.7864 187.262 58.2373C188.166 58.4746 188.713 58.7593 188.713 59.5188C188.713 60.2782 188.095 60.6579 187.096 60.5867C185.43 60.4443 182.338 60.2782 177.295 60.2782C172.252 60.2782 169.135 60.4443 167.47 60.5867C166.471 60.5867 165.876 60.2782 165.876 59.5188C165.876 58.7593 166.4 58.4746 167.328 58.2373C169.064 57.7864 169.302 56.1963 169.302 53.3011V29.9967C169.302 27.0302 169.064 25.5115 167.232 25.0606C166.328 24.8233 165.781 24.4435 165.781 23.6841C165.781 22.9247 166.257 22.4738 167.161 22.3076C172.469 21.3596 177.618 19.6742 182.457 17.3003C183.527 16.707 184.146 17.3003 184.289 18.3683L184.978 23.8265C186.21 21.4576 188.098 19.4914 190.418 18.162C192.737 16.8326 195.39 16.1957 198.062 16.3272C208.886 16.3272 213.453 22.545 213.453 34.2447V53.23C213.453 56.1252 213.667 57.7151 215.428 58.166C216.331 58.4034 216.879 58.6882 216.879 59.4476Z" fill="#D7F0D3"/>
<path d="M268.927 41.6014C268.332 56.2675 258.127 63.2446 245.805 61.1325C242.831 60.6877 240.137 59.1361 238.264 56.7897V59.1628C238.292 59.3696 238.267 59.5799 238.193 59.775C238.119 59.97 237.998 60.1437 237.839 60.2802C237.681 60.4167 237.492 60.5119 237.288 60.5571C237.084 60.6023 236.871 60.5961 236.67 60.5392C235.29 60.5392 233.007 60.3257 229.367 60.3257C225.18 60.3257 222.231 60.468 220.375 60.6104C219.305 60.6104 218.781 60.3256 218.781 59.5425C218.781 58.7593 219.305 58.4983 220.233 58.261C222.04 57.8101 222.278 56.2913 222.278 53.3248V17.4902C222.278 14.5237 222.04 13.0049 220.233 12.554C219.305 12.3166 218.781 12.0081 218.781 11.1775C218.775 10.8078 218.913 10.45 219.166 10.1798C219.419 9.90962 219.767 9.74833 220.137 9.7299C225.785 8.86238 231.274 7.17543 236.432 4.72257C237.503 4.20048 238.264 4.72252 238.264 5.86164V22.4738C239.569 20.4887 241.375 18.882 243.501 17.8154C245.627 16.7488 247.997 16.26 250.372 16.3985C262.932 16.2561 269.546 26.8878 268.927 41.6014ZM252.561 38.1129C252.347 27.9321 248.85 22.4026 244.425 22.7823C240 23.162 237.574 29.0712 238.121 42.2184C238.573 52.2332 242.07 56.8608 246.471 56.4574C250.872 56.054 252.799 48.2226 252.561 38.1129Z" fill="#D7F0D3"/>
<path d="M295.047 59.4476C295.047 60.207 294.428 60.5866 293.453 60.5154C291.764 60.373 288.695 60.207 283.628 60.207C278.562 60.207 275.493 60.373 273.804 60.5154C272.829 60.5154 272.21 60.207 272.21 59.4476C272.21 58.6882 272.757 58.4033 273.661 58.166C275.398 57.7151 275.635 56.1252 275.635 53.23V29.9255C275.635 27.0303 275.398 25.4402 273.661 24.9893C272.757 24.752 272.21 24.3722 272.21 23.6128C272.21 22.8534 272.662 22.4026 273.59 22.2365C279.197 21.3294 284.65 19.6438 289.79 17.229C290.86 16.7069 291.621 17.2291 291.621 18.297V53.23C291.621 56.1252 291.859 57.7151 293.596 58.166C294.523 58.4033 295.047 58.6882 295.047 59.4476ZM273.114 8.04492C273.114 3.55965 277.61 -0.00012207 283.034 -0.00012207C288.458 -0.00012207 293.001 3.55965 293.001 8.04492C293.001 12.5302 288.505 15.9476 283.034 15.9476C277.562 15.9476 273.114 12.459 273.114 8.04492V8.04492Z" fill="#D7F0D3"/>
<path d="M328.16 32.1088C321.024 31.8952 324.497 24.135 319.787 24.135C317.408 24.135 317.194 28.6202 317.194 31.6579V53.23C317.194 56.4812 318.121 57.9762 320.548 58.2373C321.547 58.4034 322.07 58.6882 322.07 59.4476C322.07 60.207 321.547 60.5866 320.477 60.5154C318.573 60.373 314.981 60.207 309.748 60.207C304.515 60.207 301.137 60.373 299.305 60.5154C298.258 60.5154 297.711 60.207 297.711 59.4476C297.711 58.6882 298.258 58.4033 299.162 58.166C300.994 57.7151 301.208 56.1964 301.208 53.23V29.9255C301.208 26.9591 300.994 25.4402 299.162 24.9893C298.258 24.752 297.711 24.3722 297.711 23.6128C297.711 22.8534 298.163 22.4026 299.091 22.2365C304.397 21.2816 309.545 19.5963 314.387 17.229C315.457 16.6357 316.052 17.2291 316.218 18.297L316.884 23.8502C318.407 19.6735 321.238 16.2561 326.4 16.2561C339.341 16.2561 338.199 32.4173 328.16 32.1088Z" fill="#D7F0D3"/>
<path d="M386.917 58.6882C386.917 59.4476 386.394 59.7562 385.324 59.7562C381.589 59.7562 372.621 60.207 369.029 60.6816C368.827 60.7385 368.615 60.7448 368.411 60.6996C368.207 60.6543 368.018 60.5591 367.859 60.4226C367.701 60.2861 367.58 60.1124 367.505 59.9174C367.431 59.7223 367.407 59.512 367.435 59.3053V55.437C366.127 57.4186 364.32 59.0227 362.195 60.0889C360.07 61.1551 357.701 61.6459 355.326 61.5123C342.766 61.5123 336.153 50.8805 336.772 36.1432C337.39 21.4059 347.572 14.4999 359.894 16.6358C362.869 17.0583 365.569 18.6044 367.435 20.9549V17.3952C367.435 14.5 367.221 12.9099 365.46 12.459C364.556 12.2217 364.009 11.8421 364.009 11.0827C364.009 10.3233 364.461 9.87232 365.389 9.7062C370.997 8.79905 376.449 7.11362 381.589 4.69887C382.659 4.17677 383.421 4.6989 383.421 5.76682V52.4706C383.421 55.437 383.659 56.9557 385.49 57.4066C386.37 57.6202 386.917 57.9288 386.917 58.6882ZM367.601 35.5262C367.126 25.5114 363.629 20.8838 359.228 21.2872C354.827 21.6907 352.9 29.5695 353.138 39.6555C353.376 49.7414 356.849 55.3658 361.274 54.9861C365.698 54.6064 368.125 48.7209 367.601 35.5262V35.5262Z" fill="#D7F0D3"/>
<path d="M420.792 29.7357C410.825 29.7357 416.034 19.4125 408.708 18.7955C402.166 18.2734 401.095 24.9419 404.212 27.4574C412.728 34.4345 428.951 34.577 428 47.8667C427.619 53.9657 423.242 61.631 407.375 61.631C386.442 61.631 385.609 46.6563 394.054 46.3716C403.569 45.9681 398.812 59.2578 407.375 59.2578C408.435 59.3153 409.49 59.0745 410.419 58.5627C411.349 58.0509 412.115 57.2887 412.631 56.3632C413.147 55.4377 413.392 54.3862 413.337 53.3287C413.283 52.2711 412.932 51.2502 412.323 50.3822C407.566 43.7848 389.724 44.2357 389.796 30.1866C389.796 21.9755 397.551 16.3748 408.826 16.3748C429.641 16.2561 428.404 29.7357 420.792 29.7357Z" fill="#D7F0D3"/>
</g>
<defs>
<clipPath id="clip0_2_23560">
<rect width="428" height="87" fill="white"/>
</clipPath>
</defs>
</svg>
