<svg width="28" height="22" viewBox="0 0 28 22" fill="none" xmlns="http://www.w3.org/2000/svg">
<path d="M27.32 2.8935C26.3338 3.3335 25.281 3.62683 24.1749 3.76016C25.3077 3.08016 26.1739 2.0135 26.5737 0.733496C25.5209 1.36016 24.3481 1.8135 23.0954 2.06683C22.0959 1.00016 20.6833 0.333496 19.0974 0.333496C16.0723 0.333496 13.6335 2.78683 13.6335 5.80016C13.6335 6.22683 13.6868 6.64016 13.7801 7.05349C9.2357 6.82683 5.21104 4.6535 2.50573 1.3335C2.05262 2.14683 1.78609 3.08016 1.78609 4.08016C1.78609 5.9735 2.74561 7.65349 4.22487 8.64016C3.31865 8.61349 2.47907 8.36016 1.73278 7.96016C1.73278 7.98683 1.73278 8.00016 1.73278 8.02683C1.73278 10.6802 3.61184 12.8935 6.11726 13.3868C5.66415 13.5068 5.17106 13.5735 4.67797 13.5735C4.33148 13.5735 3.98499 13.5335 3.65182 13.4802C4.34481 15.6535 6.37046 17.2402 8.75594 17.2802C6.8902 18.7468 4.53138 19.6268 1.95933 19.6268C1.51955 19.6268 1.07977 19.6002 0.65332 19.5468C3.07877 21.0935 5.94401 22.0002 9.0358 22.0002C19.0974 22.0002 24.588 13.6668 24.588 6.44016C24.588 6.20016 24.588 5.9735 24.5747 5.7335C25.6542 4.96016 26.587 4.00016 27.32 2.8935Z" fill="#58557A"/>
</svg>
